<?xml version="1.0" encoding="utf-8"?>
<!-- Generator: Adobe Illustrator 22.0.1, SVG Export Plug-In . SVG Version: 6.00 Build 0)  -->
<svg version="1.1" id="Layer_1" xmlns="http://www.w3.org/2000/svg" xmlns:xlink="http://www.w3.org/1999/xlink" x="0px" y="0px"
	 viewBox="0 0 512 512" style="enable-background:new 0 0 512 512;" xml:space="preserve">
<style type="text/css">
	.st0{fill:#35216D;}
	.st1{fill:#EDF3FC;}
	.st2{fill:#330D84;}
	.st3{fill:#FFBE1B;}
	.st4{fill:#0061F3;}
	.st5{fill:#8C7BFD;}
	.st6{fill:#FFFFFF;}
	.st7{fill:#5932AE;}
	.st8{fill:#1C46C4;}
	.st9{fill:#6857E5;}
	.st10{fill:#5D8EF9;}
	.st11{fill:#8AC9F9;}
	.st12{fill:#FFE37B;}
	.st13{fill:#FFD000;}
	.st14{fill:#2EF39E;}
	.st15{fill:#330D84;stroke:#330D84;stroke-width:0.6306;stroke-linecap:round;stroke-linejoin:round;stroke-miterlimit:10;}
	.st16{fill:#FFFFFF;stroke:#FFFFFF;stroke-width:0.737;stroke-linecap:round;stroke-linejoin:round;stroke-miterlimit:10;}
	.st17{fill:none;}
	.st18{fill:#FDB813;}
</style>
<g>
	<g>
		<g>
			<g>
				<path class="st1" d="M255.999,40.928c-118.778,0-215.071,96.294-215.071,215.074c0,118.776,96.292,215.068,215.071,215.068
					S471.07,374.778,471.07,256.002C471.07,137.222,374.777,40.928,255.999,40.928z"/>
			</g>
		</g>
		<g>
			<g>
				<path class="st1" d="M255.999,1C115.391,1,1,115.392,1,256.002C1,396.609,115.391,511,255.999,511S511,396.609,511,256.002
					C511,115.392,396.607,1,255.999,1z M255.999,502.832c-136.103,0-246.83-110.728-246.83-246.83
					c0-136.104,110.727-246.833,246.83-246.833c136.102,0,246.832,110.729,246.832,246.833
					C502.831,392.104,392.101,502.832,255.999,502.832z"/>
			</g>
		</g>
	</g>
	<g>
		<g>
			<path class="st10" d="M285.683,373.309c-10.079-2.523-17.945-10.394-20.474-20.472l-0.428-1.72l-0.433,1.72
				c-2.524,10.078-10.394,17.948-20.471,20.472l-1.721,0.433l1.721,0.434c10.077,2.523,17.947,10.392,20.471,20.469l0.433,1.719
				l0.428-1.719c2.529-10.077,10.395-17.945,20.474-20.469l1.721-0.434L285.683,373.309z"/>
		</g>
	</g>
	<g>
		<g>
			<path class="st10" d="M322.406,139.975c-10.079-2.523-17.945-10.394-20.474-20.471l-0.428-1.72l-0.433,1.72
				c-2.524,10.078-10.394,17.948-20.471,20.471l-1.721,0.433l1.721,0.433c10.077,2.524,17.947,10.392,20.471,20.469l0.433,1.719
				l0.428-1.719c2.529-10.077,10.395-17.945,20.474-20.469l1.721-0.433L322.406,139.975z"/>
		</g>
	</g>
	<path class="st3" d="M331.88,400.405l1.416,0.355l-1.416,0.355c-8.289,2.076-14.757,8.547-16.833,16.835l-0.357,1.413l-0.354-1.413
		c-2.076-8.288-8.547-14.759-16.838-16.835l-1.411-0.355l1.411-0.355c8.291-2.076,14.762-8.548,16.838-16.833l0.354-1.413
		l0.357,1.413C317.123,391.857,323.591,398.329,331.88,400.405L331.88,400.405z"/>
	<path class="st2" d="M227.16,117.811l2.996,0.713l-2.996,0.716c-17.516,4.204-31.187,17.306-35.587,34.08l-0.75,2.865l-0.743-2.865
		c-4.396-16.775-18.075-29.877-35.596-34.08l-2.983-0.716l2.983-0.713c17.522-4.205,31.201-17.311,35.596-34.081l0.743-2.867
		l0.75,2.867C195.973,100.499,209.645,113.606,227.16,117.811L227.16,117.811z"/>
	<path class="st2" d="M109.428,232.021l1.523,0.379l-1.523,0.38c-8.895,2.229-15.84,9.177-18.074,18.074l-0.38,1.519l-0.379-1.519
		c-2.232-8.897-9.18-15.846-18.079-18.074l-1.515-0.38l1.515-0.379c8.899-2.23,15.847-9.181,18.079-18.076l0.379-1.519l0.38,1.519
		C93.588,222.84,100.533,229.791,109.428,232.021L109.428,232.021z"/>
	<path class="st7" d="M298.621,329.754c0-30.376,24.625-55,55-55c11.915,0,22.935,3.801,31.941,10.239v-95.655
		c0-10.483-8.501-18.988-18.99-18.988H145.429c-10.49,0-18.991,8.505-18.991,18.988v133.319c0,10.492,8.501,18.994,18.991,18.994
		h154.497C299.081,337.818,298.621,333.84,298.621,329.754z"/>
	<path class="st5" d="M267.368,270.843l111.47-95.995c-3.309-2.804-7.588-4.498-12.265-4.498H145.428
		c-4.677,0-8.957,1.694-12.266,4.498l111.469,95.995C251.165,276.471,260.834,276.471,267.368,270.843L267.368,270.843z"/>
	<path class="st9" d="M298.621,329.754c0-16.711,7.463-31.669,19.225-41.757l-36.366-29.308l-14.113,12.154
		c-6.534,5.628-16.202,5.628-22.736,0l-14.113-12.154l-97.356,78.463c3.309,2.805,7.589,4.499,12.266,4.499h154.498
		C299.081,337.818,298.621,333.84,298.621,329.754z"/>
	<path class="st3" d="M353.621,274.754c-30.375,0-55,24.624-55,55s24.625,54.999,55,54.999c30.376,0,55-24.623,55-54.999
		S383.997,274.754,353.621,274.754z"/>
	<path class="st3" d="M269.844,246.484c0,7.646-6.198,13.844-13.844,13.844c-7.645,0-13.843-6.198-13.843-13.844
		c0-7.646,6.198-13.843,13.843-13.843C263.646,232.641,269.844,238.839,269.844,246.484z"/>
	<path class="st3" d="M408.621,329.754c0,30.376-24.624,54.999-55,54.999c-30.375,0-55-24.623-55-54.999c0-30.376,24.625-55,55-55
		C383.997,274.754,408.621,299.378,408.621,329.754z"/>
	<path class="st2" d="M378.575,313.314h-12.929c-4.961,0-9.345,2.49-11.989,6.28c-2.644-3.791-7.029-6.28-11.989-6.28h-12.93
		c-8.06,0-14.617,6.559-14.617,14.619v3.946c0,8.06,6.558,14.617,14.617,14.617h12.93c4.961,0,9.345-2.49,11.989-6.279
		c2.644,3.79,7.029,6.279,11.989,6.279h12.929c8.061,0,14.618-6.558,14.618-14.617v-3.946
		C393.193,319.873,386.636,313.314,378.575,313.314z M346.285,331.88c0,2.546-2.071,4.617-4.617,4.617h-12.93
		c-2.546,0-4.617-2.071-4.617-4.617v-3.946c0-2.547,2.071-4.619,4.617-4.619h12.93c2.546,0,4.617,2.072,4.617,4.619V331.88z
		 M383.193,331.88c0,2.546-2.071,4.617-4.618,4.617h-12.929c-2.546,0-4.617-2.071-4.617-4.617v-3.946
		c0-2.547,2.071-4.619,4.617-4.619h12.929c2.547,0,4.618,2.072,4.618,4.619V331.88z"/>
	<path class="st7" d="M366.852,334.905h-26.39c-2.762,0-5-2.238-5-5s2.238-5,5-5h26.39c2.762,0,5,2.238,5,5
		S369.613,334.905,366.852,334.905z"/>
</g>
</svg>
